<?xml version="1.0" encoding="UTF-8"?>
<!DOCTYPE svg
PUBLIC "-//W3C//DTD SVG 1.1//EN"
       "http://www.w3.org/Graphics/SVG/1.1/DTD/svg11.dtd">
<svg viewBox="91 47 1060 846" width="969px" height="799px" xmlns="http://www.w3.org/2000/svg" version="1.1">
   <line x1="904" y1="656" x2="894" y2="656" style="stroke:#bbb;stroke-width:1;"/>
   <line x1="880" y1="332" x2="890" y2="332" style="stroke:#bbb;stroke-width:1;"/>
   <line x1="894" y1="656" x2="880" y2="332" style="stroke:#bbb;stroke-width:1;"/>
   <line x1="896.5" y1="656" x2="900.03553390593" y2="659.53553390593" style="stroke:#bbb;stroke-width:2;"/>
   <line x1="896.5" y1="656" x2="900.03553390593" y2="652.46446609407" style="stroke:#bbb;stroke-width:2;"/>
   <line x1="885" y1="332" x2="881.46446609407" y2="335.53553390593" style="stroke:#bbb;stroke-width:2;"/>
   <line x1="885" y1="332" x2="881.46446609407" y2="328.46446609407" style="stroke:#bbb;stroke-width:2;"/>
   <line x1="261" y1="348" x2="271" y2="348" style="stroke:#cb0;stroke-width:1;"/>
   <line x1="494" y1="661" x2="504" y2="661" style="stroke:#cb0;stroke-width:1;"/>
   <line x1="271" y1="348" x2="494" y2="661" style="stroke:#cb0;stroke-width:1;"/>
   <line x1="268.5" y1="348" x2="264.96446609407" y2="351.53553390593" style="stroke:#cb0;stroke-width:2;"/>
   <line x1="268.5" y1="348" x2="264.96446609407" y2="344.46446609407" style="stroke:#cb0;stroke-width:2;"/>
   <line x1="499" y1="661" x2="495.46446609407" y2="664.53553390593" style="stroke:#cb0;stroke-width:2;"/>
   <line x1="499" y1="661" x2="495.46446609407" y2="657.46446609407" style="stroke:#cb0;stroke-width:2;"/>
   <line x1="890" y1="352" x2="880" y2="352" style="stroke:#cb0;stroke-width:1;"/>
   <line x1="669" y1="661" x2="659" y2="661" style="stroke:#cb0;stroke-width:1;"/>
   <line x1="880" y1="352" x2="669" y2="661" style="stroke:#cb0;stroke-width:1;"/>
   <line x1="882.5" y1="352" x2="886.03553390593" y2="355.53553390593" style="stroke:#cb0;stroke-width:2;"/>
   <line x1="882.5" y1="352" x2="886.03553390593" y2="348.46446609407" style="stroke:#cb0;stroke-width:2;"/>
   <line x1="664" y1="661" x2="667.53553390593" y2="664.53553390593" style="stroke:#cb0;stroke-width:2;"/>
   <line x1="664" y1="661" x2="667.53553390593" y2="657.46446609407" style="stroke:#cb0;stroke-width:2;"/>
   <line x1="496" y1="357" x2="486" y2="357" style="stroke:#bbb;stroke-width:1;"/>
   <line x1="486" y1="92" x2="496" y2="92" style="stroke:#bbb;stroke-width:1;"/>
   <line x1="486" y1="357" x2="486" y2="92" style="stroke:#bbb;stroke-width:1;"/>
   <line x1="488.5" y1="357" x2="492.03553390593" y2="360.53553390593" style="stroke:#bbb;stroke-width:2;"/>
   <line x1="488.5" y1="357" x2="492.03553390593" y2="353.46446609407" style="stroke:#bbb;stroke-width:2;"/>
   <line x1="491" y1="92" x2="487.46446609407" y2="95.535533905933" style="stroke:#bbb;stroke-width:2;"/>
   <line x1="491" y1="92" x2="487.46446609407" y2="88.464466094067" style="stroke:#bbb;stroke-width:2;"/>
   <line x1="651" y1="397" x2="661" y2="397" style="stroke:#bbb;stroke-width:1;"/>
   <line x1="880" y1="332" x2="890" y2="332" style="stroke:#bbb;stroke-width:1;"/>
   <line x1="661" y1="397" x2="880" y2="332" style="stroke:#bbb;stroke-width:1;"/>
   <line x1="658.5" y1="397" x2="654.96446609407" y2="400.53553390593" style="stroke:#bbb;stroke-width:2;"/>
   <line x1="658.5" y1="397" x2="654.96446609407" y2="393.46446609407" style="stroke:#bbb;stroke-width:2;"/>
   <line x1="885" y1="332" x2="881.46446609407" y2="335.53553390593" style="stroke:#bbb;stroke-width:2;"/>
   <line x1="885" y1="332" x2="881.46446609407" y2="328.46446609407" style="stroke:#bbb;stroke-width:2;"/>
   <line x1="496" y1="337" x2="486" y2="337" style="stroke:#cb0;stroke-width:1;"/>
   <line x1="486" y1="92" x2="496" y2="92" style="stroke:#cb0;stroke-width:1;"/>
   <line x1="486" y1="337" x2="486" y2="92" style="stroke:#cb0;stroke-width:1;"/>
   <line x1="488.5" y1="337" x2="492.03553390593" y2="340.53553390593" style="stroke:#cb0;stroke-width:2;"/>
   <line x1="488.5" y1="337" x2="492.03553390593" y2="333.46446609407" style="stroke:#cb0;stroke-width:2;"/>
   <line x1="491" y1="92" x2="487.46446609407" y2="95.535533905933" style="stroke:#cb0;stroke-width:2;"/>
   <line x1="491" y1="92" x2="487.46446609407" y2="88.464466094067" style="stroke:#cb0;stroke-width:2;"/>
   <line x1="496" y1="377" x2="486" y2="377" style="stroke:#333;stroke-width:1;"/>
   <line x1="494" y1="661" x2="504" y2="661" style="stroke:#333;stroke-width:1;"/>
   <line x1="486" y1="377" x2="494" y2="661" style="stroke:#333;stroke-width:1;"/>
   <line x1="488.5" y1="377" x2="492.03553390593" y2="380.53553390593" style="stroke:#333;stroke-width:2;"/>
   <line x1="488.5" y1="377" x2="492.03553390593" y2="373.46446609407" style="stroke:#333;stroke-width:2;"/>
   <line x1="499" y1="661" x2="495.46446609407" y2="664.53553390593" style="stroke:#333;stroke-width:2;"/>
   <line x1="499" y1="661" x2="495.46446609407" y2="657.46446609407" style="stroke:#333;stroke-width:2;"/>
   <rect width="155" height="20" x="904" y="606" style="fill:#007;stroke:black;"/>
   <text width="155" height="20" x="909" y="620" style="fill:#fff;" font-family="Arial" font-size="16px"> cars</text>
   <rect width="155" height="20" x="904" y="626" style="fill:#aea;stroke:black;"/>
   <text width="155" height="20" x="909" y="640" style="fill:black;" font-family="Arial" font-size="16px">ID</text>
   <rect width="155" height="20" x="904" y="646" style="fill:none;stroke:black;"/>
   <text width="155" height="20" x="909" y="660" style="fill:black;" font-family="Arial" font-size="16px">driverid</text>
   <rect width="155" height="20" x="904" y="666" style="fill:none;stroke:black;"/>
   <text width="155" height="20" x="909" y="680" style="fill:black;" font-family="Arial" font-size="16px">year</text>
   <rect width="155" height="20" x="904" y="686" style="fill:none;stroke:black;"/>
   <text width="155" height="20" x="909" y="700" style="fill:black;" font-family="Arial" font-size="16px">make</text>
   <rect width="155" height="20" x="904" y="706" style="fill:none;stroke:black;"/>
   <text width="155" height="20" x="909" y="720" style="fill:black;" font-family="Arial" font-size="16px">model</text>
   <rect width="155" height="20" x="904" y="726" style="fill:none;stroke:black;"/>
   <text width="155" height="20" x="909" y="740" style="fill:black;" font-family="Arial" font-size="16px">licenseplate</text>
   <rect width="155" height="20" x="106" y="298" style="fill:#007;stroke:black;"/>
   <text width="155" height="20" x="111" y="312" style="fill:#fff;" font-family="Arial" font-size="16px"> creditcards</text>
   <rect width="155" height="20" x="106" y="318" style="fill:#aea;stroke:black;"/>
   <text width="155" height="20" x="111" y="332" style="fill:black;" font-family="Arial" font-size="16px">ID</text>
   <rect width="155" height="20" x="106" y="338" style="fill:none;stroke:black;"/>
   <text width="155" height="20" x="111" y="352" style="fill:black;" font-family="Arial" font-size="16px">riderid</text>
   <rect width="155" height="20" x="106" y="358" style="fill:none;stroke:black;"/>
   <text width="155" height="20" x="111" y="372" style="fill:black;" font-family="Arial" font-size="16px">cardnumber</text>
   <rect width="155" height="20" x="106" y="378" style="fill:none;stroke:black;"/>
   <text width="155" height="20" x="111" y="392" style="fill:black;" font-family="Arial" font-size="16px">cardexpiration</text>
   <rect width="155" height="20" x="106" y="398" style="fill:none;stroke:black;"/>
   <text width="155" height="20" x="111" y="412" style="fill:black;" font-family="Arial" font-size="16px">cardcvv</text>
   <rect width="155" height="20" x="106" y="418" style="fill:none;stroke:black;"/>
   <text width="155" height="20" x="111" y="432" style="fill:black;" font-family="Arial" font-size="16px">cardholdername</text>
   <rect width="155" height="20" x="890" y="302" style="fill:#007;stroke:black;"/>
   <text width="155" height="20" x="895" y="316" style="fill:#fff;" font-family="Arial" font-size="16px"> drivers</text>
   <rect width="155" height="20" x="890" y="322" style="fill:#aea;stroke:black;"/>
   <text width="155" height="20" x="895" y="336" style="fill:black;" font-family="Arial" font-size="16px">ID</text>
   <rect width="155" height="20" x="890" y="342" style="fill:none;stroke:black;"/>
   <text width="155" height="20" x="895" y="356" style="fill:black;" font-family="Arial" font-size="16px">riderid</text>
   <rect width="155" height="20" x="890" y="362" style="fill:none;stroke:black;"/>
   <text width="155" height="20" x="895" y="376" style="fill:black;" font-family="Arial" font-size="16px">licensenumber</text>
   <rect width="155" height="20" x="890" y="382" style="fill:none;stroke:black;"/>
   <text width="155" height="20" x="895" y="396" style="fill:black;" font-family="Arial" font-size="16px">licenseexpiration</text>
   <rect width="155" height="20" x="890" y="402" style="fill:none;stroke:black;"/>
   <text width="155" height="20" x="895" y="416" style="fill:black;" font-family="Arial" font-size="16px">bankaccountnumber</text>
   <rect width="155" height="20" x="890" y="422" style="fill:none;stroke:black;"/>
   <text width="155" height="20" x="895" y="436" style="fill:black;" font-family="Arial" font-size="16px">bankroutingnumber</text>
   <rect width="155" height="20" x="890" y="442" style="fill:none;stroke:black;"/>
   <text width="155" height="20" x="895" y="456" style="fill:black;" font-family="Arial" font-size="16px">rating</text>
   <rect width="155" height="20" x="496" y="62" style="fill:#007;stroke:black;"/>
   <text width="155" height="20" x="501" y="76" style="fill:#fff;" font-family="Arial" font-size="16px"> locations</text>
   <rect width="155" height="20" x="496" y="82" style="fill:#aea;stroke:black;"/>
   <text width="155" height="20" x="501" y="96" style="fill:black;" font-family="Arial" font-size="16px">ID</text>
   <rect width="155" height="20" x="496" y="102" style="fill:none;stroke:black;"/>
   <text width="155" height="20" x="501" y="116" style="fill:black;" font-family="Arial" font-size="16px">streetaddress1</text>
   <rect width="155" height="20" x="496" y="122" style="fill:none;stroke:black;"/>
   <text width="155" height="20" x="501" y="136" style="fill:black;" font-family="Arial" font-size="16px">streetaddress2</text>
   <rect width="155" height="20" x="496" y="142" style="fill:none;stroke:black;"/>
   <text width="155" height="20" x="501" y="156" style="fill:black;" font-family="Arial" font-size="16px">city</text>
   <rect width="155" height="20" x="496" y="162" style="fill:none;stroke:black;"/>
   <text width="155" height="20" x="501" y="176" style="fill:black;" font-family="Arial" font-size="16px">state</text>
   <rect width="155" height="20" x="496" y="182" style="fill:none;stroke:black;"/>
   <text width="155" height="20" x="501" y="196" style="fill:black;" font-family="Arial" font-size="16px">zipcode</text>
   <rect width="155" height="20" x="504" y="631" style="fill:#007;stroke:black;"/>
   <text width="155" height="20" x="509" y="645" style="fill:#fff;" font-family="Arial" font-size="16px"> riders</text>
   <rect width="155" height="20" x="504" y="651" style="fill:#aea;stroke:black;"/>
   <text width="155" height="20" x="509" y="665" style="fill:black;" font-family="Arial" font-size="16px">ID</text>
   <rect width="155" height="20" x="504" y="671" style="fill:none;stroke:black;"/>
   <text width="155" height="20" x="509" y="685" style="fill:black;" font-family="Arial" font-size="16px">password</text>
   <rect width="155" height="20" x="504" y="691" style="fill:none;stroke:black;"/>
   <text width="155" height="20" x="509" y="705" style="fill:black;" font-family="Arial" font-size="16px">emailaddress</text>
   <rect width="155" height="20" x="504" y="711" style="fill:none;stroke:black;"/>
   <text width="155" height="20" x="509" y="725" style="fill:black;" font-family="Arial" font-size="16px">phonenumber</text>
   <rect width="155" height="20" x="504" y="731" style="fill:none;stroke:black;"/>
   <text width="155" height="20" x="509" y="745" style="fill:black;" font-family="Arial" font-size="16px">firstname</text>
   <rect width="155" height="20" x="504" y="751" style="fill:none;stroke:black;"/>
   <text width="155" height="20" x="509" y="765" style="fill:black;" font-family="Arial" font-size="16px">lastname</text>
   <rect width="155" height="20" x="504" y="771" style="fill:none;stroke:black;"/>
   <text width="155" height="20" x="509" y="785" style="fill:black;" font-family="Arial" font-size="16px">birthdate</text>
   <rect width="155" height="20" x="504" y="791" style="fill:none;stroke:black;"/>
   <text width="155" height="20" x="509" y="805" style="fill:black;" font-family="Arial" font-size="16px">role</text>
   <rect width="155" height="20" x="504" y="811" style="fill:none;stroke:black;"/>
   <text width="155" height="20" x="509" y="825" style="fill:black;" font-family="Arial" font-size="16px">rating</text>
   <rect width="155" height="20" x="496" y="287" style="fill:#007;stroke:black;"/>
   <text width="155" height="20" x="501" y="301" style="fill:#fff;" font-family="Arial" font-size="16px"> rides</text>
   <rect width="155" height="20" x="496" y="307" style="fill:#aea;stroke:black;"/>
   <text width="155" height="20" x="501" y="321" style="fill:black;" font-family="Arial" font-size="16px">ID</text>
   <rect width="155" height="20" x="496" y="327" style="fill:none;stroke:black;"/>
   <text width="155" height="20" x="501" y="341" style="fill:black;" font-family="Arial" font-size="16px">originid</text>
   <rect width="155" height="20" x="496" y="347" style="fill:none;stroke:black;"/>
   <text width="155" height="20" x="501" y="361" style="fill:black;" font-family="Arial" font-size="16px">destinationid</text>
   <rect width="155" height="20" x="496" y="367" style="fill:none;stroke:black;"/>
   <text width="155" height="20" x="501" y="381" style="fill:black;" font-family="Arial" font-size="16px">riderid</text>
   <rect width="155" height="20" x="496" y="387" style="fill:none;stroke:black;"/>
   <text width="155" height="20" x="501" y="401" style="fill:black;" font-family="Arial" font-size="16px">driverid</text>
   <rect width="155" height="20" x="496" y="407" style="fill:none;stroke:black;"/>
   <text width="155" height="20" x="501" y="421" style="fill:black;" font-family="Arial" font-size="16px">mileage</text>
   <rect width="155" height="20" x="496" y="427" style="fill:none;stroke:black;"/>
   <text width="155" height="20" x="501" y="441" style="fill:black;" font-family="Arial" font-size="16px">cost</text>
</svg>
